<svg xmlns="http://www.w3.org/2000/svg" xmlns:xlink="http://www.w3.org/1999/xlink" width="410" zoomAndPan="magnify" viewBox="0 0 307.5 358.499998" height="478" preserveAspectRatio="xMidYMid meet" version="1.2"><defs><clipPath id="07d2c5a0f1"><path d="M 0 0.0429688 L 307 0.0429688 L 307 357.960938 L 0 357.960938 Z M 0 0.0429688 "/></clipPath></defs><g id="627d5e7ae8"><g clip-rule="nonzero" clip-path="url(#07d2c5a0f1)"><path style=" stroke:none;fill-rule:nonzero;fill:#ffffff;fill-opacity:1;" d="M 0 0.0429688 L 307 0.0429688 L 307 357.960938 L 0 357.960938 Z M 0 0.0429688 "/></g><g style="fill:#000000;fill-opacity:1;"><g transform="translate(90.318881, 235.89401)"><path style="stroke:none" d="M 173.625 -74.140625 C 173.738281 -74.265625 173.859375 -74.296875 173.984375 -74.234375 C 174.109375 -74.171875 174.171875 -74.082031 174.171875 -73.96875 C 174.296875 -73.84375 174.234375 -73.65625 173.984375 -73.40625 C 163.585938 -69.125 153.035156 -65.054688 142.328125 -61.203125 C 131.617188 -57.347656 120.882812 -53.707031 110.125 -50.28125 L 122.046875 12.65625 C 122.296875 14.5 121.5 15.664062 119.65625 16.15625 C 119.289062 16.15625 118.925781 16.125 118.5625 16.0625 C 118.195312 16 117.828125 15.90625 117.453125 15.78125 C 110.847656 11.5 104.242188 7.273438 97.640625 3.109375 C 91.035156 -1.046875 84.367188 -5.140625 77.640625 -9.171875 C 71.640625 -13.085938 64.96875 -17.15625 57.625 -21.375 C 50.28125 -25.601562 43.304688 -29.0625 36.703125 -31.75 C 35.359375 -32.363281 34.992188 -33.28125 35.609375 -34.5 C 35.722656 -35.113281 36.269531 -35.539062 37.25 -35.78125 C 48.144531 -37.625 59.066406 -39.796875 70.015625 -42.296875 C 80.960938 -44.804688 91.820312 -47.59375 102.59375 -50.65625 L 101.3125 -56.890625 C 96.90625 -77.078125 92.679688 -97.265625 88.640625 -117.453125 C 75.671875 -97.515625 62 -77.878906 47.625 -58.546875 C 33.25 -39.210938 17.492188 -21.164062 0.359375 -4.40625 C 0.242188 -4.28125 0.0625 -4.28125 -0.1875 -4.40625 C -0.300781 -4.644531 -0.300781 -4.828125 -0.1875 -4.953125 C 7.882812 -14.867188 15.742188 -24.960938 23.390625 -35.234375 C 31.046875 -45.515625 38.421875 -55.914062 45.515625 -66.4375 C 52.859375 -76.832031 59.984375 -87.414062 66.890625 -98.1875 C 73.804688 -108.957031 80.566406 -119.722656 87.171875 -130.484375 C 87.910156 -131.835938 89.078125 -132.515625 90.671875 -132.515625 C 91.035156 -132.515625 91.398438 -132.453125 91.765625 -132.328125 C 92.128906 -132.203125 92.492188 -132.019531 92.859375 -131.78125 C 93.835938 -131.164062 94.453125 -130.242188 94.703125 -129.015625 C 97.148438 -117.273438 99.503906 -105.5 101.765625 -93.6875 C 104.023438 -81.882812 106.257812 -70.046875 108.46875 -58.171875 L 109.5625 -52.671875 C 120.457031 -55.847656 131.253906 -59.210938 141.953125 -62.765625 C 152.660156 -66.316406 163.21875 -70.109375 173.625 -74.140625 Z M 44.59375 -32.859375 C 50.71875 -30.035156 56.742188 -26.972656 62.671875 -23.671875 C 68.609375 -20.367188 74.453125 -17.003906 80.203125 -13.578125 C 85.953125 -10.148438 91.734375 -6.722656 97.546875 -3.296875 C 103.359375 0.117188 109.078125 3.601562 114.703125 7.15625 L 103.140625 -48.078125 C 93.472656 -45.148438 83.773438 -42.398438 74.046875 -39.828125 C 64.328125 -37.253906 54.507812 -34.929688 44.59375 -32.859375 Z M 44.59375 -32.859375 "/></g></g><g style="fill:#000000;fill-opacity:1;"><g transform="translate(88.492521, 250.499756)"><path style="stroke:none" d="M 9.546875 -0.671875 L 9.53125 0 L 5.390625 0 L 5.3125 -0.421875 C 5.5625 -0.566406 5.941406 -0.75 6.453125 -0.96875 L 5.90625 -2.390625 L 2.78125 -2.390625 L 2.203125 -0.84375 L 3.40625 -0.671875 L 3.390625 0 L -0.1875 0 L -0.265625 -0.421875 C -0.00390625 -0.585938 0.359375 -0.765625 0.828125 -0.953125 L 3.734375 -8.09375 L 3.578125 -8.5 L 5.296875 -8.96875 L 8.625 -0.796875 Z M 5.53125 -3.390625 L 4.34375 -6.5 L 3.15625 -3.390625 Z M 5.53125 -3.390625 "/></g></g><g style="fill:#000000;fill-opacity:1;"><g transform="translate(97.947671, 250.499756)"><path style="stroke:none" d="M 7.75 -2.546875 C 7.75 -1.492188 7.691406 -0.644531 7.578125 0 L 0.421875 0 L 0.34375 -0.421875 C 0.59375 -0.585938 0.960938 -0.765625 1.453125 -0.953125 L 1.453125 -7.84375 L 0.453125 -7.984375 L 0.453125 -8.65625 L 4.484375 -8.65625 L 4.5625 -8.234375 C 4.238281 -8.046875 3.867188 -7.867188 3.453125 -7.703125 L 3.453125 -1.109375 L 6.09375 -1.3125 L 6.609375 -3.125 L 7.75 -3.03125 Z M 7.75 -2.546875 "/></g></g><g style="fill:#000000;fill-opacity:1;"><g transform="translate(105.78531, 250.499756)"><path style="stroke:none" d="M 9.546875 -0.671875 L 9.53125 0 L 5.390625 0 L 5.3125 -0.421875 C 5.5625 -0.566406 5.941406 -0.75 6.453125 -0.96875 L 5.90625 -2.390625 L 2.78125 -2.390625 L 2.203125 -0.84375 L 3.40625 -0.671875 L 3.390625 0 L -0.1875 0 L -0.265625 -0.421875 C -0.00390625 -0.585938 0.359375 -0.765625 0.828125 -0.953125 L 3.734375 -8.09375 L 3.578125 -8.5 L 5.296875 -8.96875 L 8.625 -0.796875 Z M 5.53125 -3.390625 L 4.34375 -6.5 L 3.15625 -3.390625 Z M 5.53125 -3.390625 "/></g></g><g style="fill:#000000;fill-opacity:1;"><g transform="translate(115.240459, 250.499756)"><path style="stroke:none" d="M 9.828125 -8.234375 C 9.554688 -8.066406 9.203125 -7.890625 8.765625 -7.703125 L 8.703125 0 L 6.859375 0.171875 L 2.703125 -6.203125 L 2.890625 -4.59375 L 2.890625 -0.84375 L 4.046875 -0.671875 L 4.03125 0 L 0.421875 0 L 0.34375 -0.421875 C 0.59375 -0.585938 0.960938 -0.765625 1.453125 -0.953125 L 1.453125 -7.84375 L 0.546875 -7.984375 L 0.546875 -8.65625 L 3.46875 -8.65625 L 3.453125 -8.640625 L 7.53125 -2.296875 L 7.328125 -3.953125 L 7.328125 -7.796875 L 6.046875 -7.984375 L 6.0625 -8.65625 L 9.75 -8.65625 Z M 9.828125 -8.234375 "/></g></g><g style="fill:#000000;fill-opacity:1;"><g transform="translate(125.418877, 250.499756)"><path style="stroke:none" d=""/></g></g><g style="fill:#000000;fill-opacity:1;"><g transform="translate(128.903739, 250.499756)"><path style="stroke:none" d="M 7.5 -0.953125 L 4.796875 0.203125 C 3.722656 0.242188 2.835938 0.0546875 2.140625 -0.359375 C 1.441406 -0.785156 0.929688 -1.335938 0.609375 -2.015625 C 0.296875 -2.703125 0.140625 -3.4375 0.140625 -4.21875 C 0.140625 -5.03125 0.304688 -5.796875 0.640625 -6.515625 C 0.972656 -7.234375 1.472656 -7.8125 2.140625 -8.25 C 2.804688 -8.695312 3.613281 -8.921875 4.5625 -8.921875 C 5.582031 -8.921875 6.488281 -8.644531 7.28125 -8.09375 C 7.289062 -7.8125 7.269531 -7.429688 7.21875 -6.953125 C 7.164062 -6.484375 7.085938 -6.070312 6.984375 -5.71875 L 5.78125 -5.71875 L 5.453125 -7.375 C 4.847656 -7.632812 4.1875 -7.765625 3.46875 -7.765625 C 3.039062 -7.441406 2.71875 -6.984375 2.5 -6.390625 C 2.289062 -5.804688 2.1875 -5.1875 2.1875 -4.53125 C 2.1875 -3.488281 2.4375 -2.660156 2.9375 -2.046875 C 3.445312 -1.429688 4.140625 -1.140625 5.015625 -1.171875 L 7.1875 -1.875 Z M 7.5 -0.953125 "/></g></g><g style="fill:#000000;fill-opacity:1;"><g transform="translate(136.557279, 250.499756)"><path style="stroke:none" d="M 7.75 -2.546875 C 7.75 -1.492188 7.691406 -0.644531 7.578125 0 L 0.421875 0 L 0.34375 -0.421875 C 0.59375 -0.585938 0.960938 -0.765625 1.453125 -0.953125 L 1.453125 -7.84375 L 0.453125 -7.984375 L 0.453125 -8.65625 L 4.484375 -8.65625 L 4.5625 -8.234375 C 4.238281 -8.046875 3.867188 -7.867188 3.453125 -7.703125 L 3.453125 -1.109375 L 6.09375 -1.3125 L 6.609375 -3.125 L 7.75 -3.03125 Z M 7.75 -2.546875 "/></g></g><g style="fill:#000000;fill-opacity:1;"><g transform="translate(144.394918, 250.499756)"><path style="stroke:none" d="M 9.546875 -0.671875 L 9.53125 0 L 5.390625 0 L 5.3125 -0.421875 C 5.5625 -0.566406 5.941406 -0.75 6.453125 -0.96875 L 5.90625 -2.390625 L 2.78125 -2.390625 L 2.203125 -0.84375 L 3.40625 -0.671875 L 3.390625 0 L -0.1875 0 L -0.265625 -0.421875 C -0.00390625 -0.585938 0.359375 -0.765625 0.828125 -0.953125 L 3.734375 -8.09375 L 3.578125 -8.5 L 5.296875 -8.96875 L 8.625 -0.796875 Z M 5.53125 -3.390625 L 4.34375 -6.5 L 3.15625 -3.390625 Z M 5.53125 -3.390625 "/></g></g><g style="fill:#000000;fill-opacity:1;"><g transform="translate(153.850068, 250.499756)"><path style="stroke:none" d="M 8.984375 -0.671875 L 8.96875 0 L 6.34375 0 L 4.546875 -3.359375 L 3.453125 -3.34375 L 3.453125 -0.84375 L 4.640625 -0.671875 L 4.625 0 L 0.421875 0 L 0.34375 -0.421875 C 0.59375 -0.585938 0.960938 -0.765625 1.453125 -0.953125 L 1.453125 -7.875 L 0.484375 -7.984375 L 0.5 -8.65625 L 4.703125 -8.765625 C 5.703125 -8.765625 6.523438 -8.507812 7.171875 -8 C 7.816406 -7.488281 8.140625 -6.851562 8.140625 -6.09375 C 8.140625 -5.570312 7.984375 -5.085938 7.671875 -4.640625 C 7.359375 -4.203125 6.925781 -3.867188 6.375 -3.640625 L 8.140625 -0.78125 Z M 3.453125 -4.453125 C 3.753906 -4.390625 4.039062 -4.359375 4.3125 -4.359375 C 4.9375 -4.359375 5.382812 -4.515625 5.65625 -4.828125 C 5.9375 -5.140625 6.078125 -5.546875 6.078125 -6.046875 C 6.078125 -6.816406 5.8125 -7.378906 5.28125 -7.734375 L 3.453125 -7.53125 Z M 3.453125 -4.453125 "/></g></g><g style="fill:#000000;fill-opacity:1;"><g transform="translate(162.950146, 250.499756)"><path style="stroke:none" d="M 9.34375 -0.6875 L 9.328125 0 L 6.6875 0 L 4 -3.765625 L 3.453125 -3.203125 L 3.453125 -0.828125 L 4.5625 -0.671875 L 4.546875 0 L 0.421875 0 L 0.34375 -0.421875 C 0.59375 -0.585938 0.960938 -0.765625 1.453125 -0.953125 L 1.453125 -7.84375 L 0.4375 -7.984375 L 0.453125 -8.65625 L 4.484375 -8.65625 L 4.5625 -8.234375 C 4.238281 -8.046875 3.867188 -7.867188 3.453125 -7.703125 L 3.453125 -4.75 L 6.375 -7.859375 L 5.5 -7.984375 L 5.515625 -8.65625 L 8.78125 -8.65625 L 8.859375 -8.234375 C 8.671875 -8.109375 8.304688 -7.945312 7.765625 -7.75 L 5.296875 -5.140625 L 8.53125 -0.8125 Z M 9.34375 -0.6875 "/></g></g><g style="fill:#000000;fill-opacity:1;"><g transform="translate(172.405295, 250.499756)"><path style="stroke:none" d="M 7.453125 -2.625 C 7.472656 -1.757812 7.421875 -0.882812 7.296875 0 L 0.421875 0 L 0.34375 -0.421875 C 0.59375 -0.585938 0.960938 -0.765625 1.453125 -0.953125 L 1.453125 -7.875 L 0.484375 -7.984375 L 0.5 -8.65625 L 7.375 -8.65625 C 7.414062 -7.9375 7.34375 -7.101562 7.15625 -6.15625 L 6.046875 -6.15625 L 5.828125 -7.453125 L 3.453125 -7.625 L 3.453125 -4.796875 L 6.28125 -5.03125 L 6.28125 -3.703125 L 3.453125 -3.8125 L 3.453125 -1.09375 L 5.921875 -1.265625 L 6.359375 -2.703125 Z M 7.453125 -2.625 "/></g></g></g></svg>